<svg xmlns="http://www.w3.org/2000/svg" version="1.1" xmlns:xlink="http://www.w3.org/1999/xlink" xmlns:svgjs="http://svgjs.dev/svgjs" width="1000" height="1000" viewBox="0 0 1000 1000"><rect width="1000" height="1000" fill="#ffffff"></rect><g transform="matrix(0.7,0,0,0.7,149.5757703215233,364.41745143346867)"><svg viewBox="0 0 396 154" data-background-color="#ffffff" preserveAspectRatio="xMidYMid meet" height="388" width="1000" xmlns="http://www.w3.org/2000/svg" xmlns:xlink="http://www.w3.org/1999/xlink"><g id="tight-bounds" transform="matrix(1,0,0,1,0.23999280831549186,-0.12329720454410165)"><svg viewBox="0 0 395.52 154.2465944090882" height="154.2465944090882" width="395.52"><g><svg viewBox="0 0 395.52 154.2465944090882" height="154.2465944090882" width="395.52"><g transform="matrix(1,0,0,1,0,92.77731362503245)"><svg viewBox="0 0 395.52 61.46928078405575" height="61.46928078405575" width="395.52"><g id="textblocktransform"><svg viewBox="0 0 395.52 61.46928078405575" height="61.46928078405575" width="395.52" id="textblock"><g><svg viewBox="0 0 395.52 33.15359283225485" height="33.15359283225485" width="395.52"><g transform="matrix(1,0,0,1,0,0)"><svg width="395.52" viewBox="0.8500000238418579 -35.75 502.1999816894531 42.099998474121094" height="33.15359283225485" data-palette-color="#398378"><path d="M29.65-35.5L29.65-32.4 17-32.4 17 0 13.5 0 13.5-32.4 0.85-32.4 0.85-35.5 29.65-35.5ZM42.75-26.15L42.75-23.05Q39.35-22.95 36.77-21.15 34.2-19.35 33.15-16.2L33.15-16.2 33.15 0 29.75 0 29.75-26.05 32.95-26.05 32.95-19.8Q34.3-22.55 36.52-24.25 38.75-25.95 41.25-26.15L41.25-26.15Q41.75-26.2 42.12-26.2 42.5-26.2 42.75-26.15L42.75-26.15ZM45.09-7.5L45.09-7.5Q45.09-9.95 46.49-11.73 47.9-13.5 50.37-14.48 52.84-15.45 56.09-15.45L56.09-15.45Q58-15.45 60.05-15.15 62.09-14.85 63.7-14.25L63.7-14.25 63.7-16.45Q63.7-19.75 61.75-21.7 59.8-23.65 56.34-23.65L56.34-23.65Q54.25-23.65 52.22-22.88 50.2-22.1 47.99-20.6L47.99-20.6 46.7-23Q49.25-24.75 51.7-25.63 54.15-26.5 56.7-26.5L56.7-26.5Q61.5-26.5 64.3-23.75 67.09-21 67.09-16.15L67.09-16.15 67.09-4.1Q67.09-3.4 67.4-3.08 67.69-2.75 68.34-2.7L68.34-2.7 68.34 0Q67.8 0.05 67.4 0.1 67 0.15 66.8 0.1L66.8 0.1Q65.55 0.05 64.9-0.7 64.25-1.45 64.19-2.3L64.19-2.3 64.15-4.2Q62.39-1.95 59.59-0.73 56.8 0.5 53.9 0.5L53.9 0.5Q51.4 0.5 49.37-0.58 47.34-1.65 46.22-3.48 45.09-5.3 45.09-7.5ZM62.55-5.5L62.55-5.5Q63.09-6.2 63.4-6.85 63.7-7.5 63.7-8L63.7-8 63.7-11.8Q62-12.45 60.17-12.8 58.34-13.15 56.5-13.15L56.5-13.15Q52.84-13.15 50.59-11.7 48.34-10.25 48.34-7.75L48.34-7.75Q48.34-6.3 49.09-5.03 49.84-3.75 51.3-2.93 52.75-2.1 54.7-2.1L54.7-2.1Q57.15-2.1 59.27-3.05 61.39-4 62.55-5.5ZM85.74 0.5L85.74 0.5Q82.89 0.5 80.52-0.58 78.14-1.65 76.37-3.55 74.59-5.45 73.62-7.9 72.64-10.35 72.64-13.1L72.64-13.1Q72.64-16.8 74.29-19.85 75.94-22.9 78.89-24.7 81.84-26.5 85.69-26.5L85.69-26.5Q89.34-26.5 92.14-24.83 94.94-23.15 96.29-20.3L96.29-20.3 92.99-19.25Q91.89-21.25 89.92-22.38 87.94-23.5 85.54-23.5L85.54-23.5Q82.94-23.5 80.79-22.15 78.64-20.8 77.37-18.45 76.09-16.1 76.09-13.1L76.09-13.1Q76.09-10.15 77.39-7.75 78.69-5.35 80.84-3.93 82.99-2.5 85.59-2.5L85.59-2.5Q87.29-2.5 88.87-3.1 90.44-3.7 91.62-4.73 92.79-5.75 93.19-6.95L93.19-6.95 96.54-5.95Q95.84-4.1 94.22-2.63 92.59-1.15 90.42-0.33 88.24 0.5 85.74 0.5ZM112.89 0.5L112.89 0.5Q110.09 0.5 107.69-0.58 105.29-1.65 103.54-3.53 101.79-5.4 100.81-7.85 99.84-10.3 99.84-13.1L99.84-13.1Q99.84-16.75 101.52-19.8 103.19-22.85 106.14-24.68 109.09-26.5 112.84-26.5L112.84-26.5Q116.69-26.5 119.56-24.65 122.44-22.8 124.09-19.78 125.74-16.75 125.74-13.15L125.74-13.15Q125.74-12.75 125.74-12.38 125.74-12 125.69-11.8L125.69-11.8 103.39-11.8Q103.64-9 104.97-6.83 106.29-4.65 108.42-3.38 110.54-2.1 113.04-2.1L113.04-2.1Q115.59-2.1 117.87-3.4 120.14-4.7 121.04-6.8L121.04-6.8 123.99-6Q123.19-4.15 121.54-2.65 119.89-1.15 117.67-0.33 115.44 0.5 112.89 0.5ZM103.29-14.25L103.29-14.25 122.54-14.25Q122.34-17.1 121.02-19.25 119.69-21.4 117.56-22.63 115.44-23.85 112.89-23.85L112.89-23.85Q110.34-23.85 108.24-22.63 106.14-21.4 104.81-19.23 103.49-17.05 103.29-14.25ZM148.44 6.35L145.04 6.35 145.04-2.55 128.39-2.55 128.39-5.55 146.14-28.55 148.44-28.55 148.44-5.65 152.84-5.65 152.84-2.55 148.44-2.55 148.44 6.35ZM145.39-23.2L131.99-5.65 145.39-5.65 145.39-23.2ZM156.64-18L156.64-18Q156.64-21.25 157.76-24.38 158.89-27.5 161.04-30.08 163.19-32.65 166.34-34.18 169.49-35.7 173.49-35.7L173.49-35.7Q178.24-35.7 181.61-33.52 184.99-31.35 186.59-27.95L186.59-27.95 183.84-26.25Q182.69-28.6 180.94-29.98 179.19-31.35 177.21-31.95 175.24-32.55 173.29-32.55L173.29-32.55Q170.09-32.55 167.64-31.28 165.19-30 163.51-27.88 161.84-25.75 160.99-23.13 160.14-20.5 160.14-17.8L160.14-17.8Q160.14-14.85 161.14-12.15 162.14-9.45 163.94-7.38 165.74-5.3 168.16-4.08 170.59-2.85 173.44-2.85L173.44-2.85Q175.44-2.85 177.54-3.55 179.64-4.25 181.46-5.7 183.29-7.15 184.39-9.45L184.39-9.45 187.29-7.95Q186.19-5.3 183.89-3.45 181.59-1.6 178.76-0.65 175.94 0.3 173.24 0.3L173.24 0.3Q169.59 0.3 166.54-1.28 163.49-2.85 161.26-5.48 159.04-8.1 157.84-11.38 156.64-14.65 156.64-18ZM190.48-7.5L190.48-7.5Q190.48-9.95 191.88-11.73 193.28-13.5 195.76-14.48 198.23-15.45 201.48-15.45L201.48-15.45Q203.38-15.45 205.43-15.15 207.48-14.85 209.08-14.25L209.08-14.25 209.08-16.45Q209.08-19.75 207.13-21.7 205.18-23.65 201.73-23.65L201.73-23.65Q199.63-23.65 197.61-22.88 195.58-22.1 193.38-20.6L193.38-20.6 192.08-23Q194.63-24.75 197.08-25.63 199.53-26.5 202.08-26.5L202.08-26.5Q206.88-26.5 209.68-23.75 212.48-21 212.48-16.15L212.48-16.15 212.48-4.1Q212.48-3.4 212.78-3.08 213.08-2.75 213.73-2.7L213.73-2.7 213.73 0Q213.18 0.05 212.78 0.1 212.38 0.15 212.18 0.1L212.18 0.1Q210.93 0.05 210.28-0.7 209.63-1.45 209.58-2.3L209.58-2.3 209.53-4.2Q207.78-1.95 204.98-0.73 202.18 0.5 199.28 0.5L199.28 0.5Q196.78 0.5 194.76-0.58 192.73-1.65 191.61-3.48 190.48-5.3 190.48-7.5ZM207.93-5.5L207.93-5.5Q208.48-6.2 208.78-6.85 209.08-7.5 209.08-8L209.08-8 209.08-11.8Q207.38-12.45 205.56-12.8 203.73-13.15 201.88-13.15L201.88-13.15Q198.23-13.15 195.98-11.7 193.73-10.25 193.73-7.75L193.73-7.75Q193.73-6.3 194.48-5.03 195.23-3.75 196.68-2.93 198.13-2.1 200.08-2.1L200.08-2.1Q202.53-2.1 204.66-3.05 206.78-4 207.93-5.5ZM231.23-4L232.13-1.25Q231.73-1.1 230.88-0.7 230.03-0.3 228.83 0 227.63 0.3 226.23 0.3L226.23 0.3Q224.78 0.3 223.51-0.25 222.23-0.8 221.48-1.93 220.73-3.05 220.73-4.7L220.73-4.7 220.73-23.35 217.13-23.35 217.13-26.05 220.73-26.05 220.73-34.85 224.13-34.85 224.13-26.05 230.13-26.05 230.13-23.35 224.13-23.35 224.13-5.65Q224.23-4.25 225.16-3.55 226.08-2.85 227.28-2.85L227.28-2.85Q228.68-2.85 229.83-3.33 230.98-3.8 231.23-4L231.23-4ZM244.93 0.5L244.93 0.5Q241.73 0.5 238.98-0.55 236.23-1.6 234.23-3.75L234.23-3.75 235.63-6.15Q237.83-4.1 240.05-3.18 242.28-2.25 244.78-2.25L244.78-2.25Q247.83-2.25 249.73-3.48 251.63-4.7 251.63-7L251.63-7Q251.63-8.55 250.7-9.38 249.78-10.2 248.05-10.73 246.33-11.25 243.93-11.85L243.93-11.85Q241.23-12.6 239.4-13.43 237.58-14.25 236.65-15.53 235.73-16.8 235.73-18.85L235.73-18.85Q235.73-21.4 237-23.08 238.28-24.75 240.5-25.63 242.73-26.5 245.48-26.5L245.48-26.5Q248.48-26.5 250.78-25.55 253.08-24.6 254.53-22.9L254.53-22.9 252.88-20.6Q251.48-22.2 249.55-22.98 247.63-23.75 245.28-23.75L245.28-23.75Q243.68-23.75 242.23-23.33 240.78-22.9 239.85-21.93 238.93-20.95 238.93-19.25L238.93-19.25Q238.93-17.85 239.63-17.07 240.33-16.3 241.73-15.78 243.13-15.25 245.18-14.65L245.18-14.65Q248.13-13.85 250.33-13.03 252.53-12.2 253.73-10.9 254.93-9.6 254.93-7.25L254.93-7.25Q254.93-3.6 252.18-1.55 249.43 0.5 244.93 0.5ZM271.07 0L271.07-2.75 295.22-32.4 271.47-32.4 271.47-35.5 299.27-35.5 299.27-32.75 275.42-3.1 299.22-3.1 299.22 0 271.07 0ZM308.92 0L305.42 0 305.42-35.5 308.92-35.5 308.92 0ZM332.12 0.25L332.12 0.25Q328.37 0.25 325.32-1.25 322.27-2.75 320.07-5.33 317.87-7.9 316.67-11.13 315.47-14.35 315.47-17.75L315.47-17.75Q315.47-21.3 316.72-24.53 317.97-27.75 320.24-30.28 322.52-32.8 325.57-34.27 328.62-35.75 332.17-35.75L332.17-35.75Q335.92-35.75 338.97-34.2 342.02-32.65 344.19-30.05 346.37-27.45 347.57-24.25 348.77-21.05 348.77-17.7L348.77-17.7Q348.77-14.15 347.52-10.93 346.27-7.7 344.02-5.18 341.77-2.65 338.72-1.2 335.67 0.25 332.12 0.25ZM318.97-17.75L318.97-17.75Q318.97-14.85 319.92-12.18 320.87-9.5 322.62-7.43 324.37-5.35 326.79-4.13 329.22-2.9 332.12-2.9L332.12-2.9Q335.17-2.9 337.59-4.17 340.02-5.45 341.74-7.58 343.47-9.7 344.37-12.35 345.27-15 345.27-17.75L345.27-17.75Q345.27-20.65 344.32-23.3 343.37-25.95 341.59-28.05 339.82-30.15 337.42-31.35 335.02-32.55 332.12-32.55L332.12-32.55Q329.12-32.55 326.69-31.3 324.27-30.05 322.54-27.93 320.82-25.8 319.89-23.15 318.97-20.5 318.97-17.75ZM371.61-3.1L391.96-3.1 391.96 0 368.11 0 368.11-35.5 391.51-35.5 391.51-32.4 371.61-32.4 371.61-19.6 388.96-19.6 388.96-16.65 371.61-16.65 371.61-3.1ZM394.86-26.05L398.66-26.05 406.31-15.85 406.71-15.1 407.11-15.85 414.71-26.05 418.56-26.05 408.66-12.95 418.56 0 414.71 0 407.11-10.15 406.71-10.85 406.31-10.15 398.71 0 394.86 0 404.71-12.95 394.86-26.05ZM434.66-4L435.56-1.25Q435.16-1.1 434.31-0.7 433.46-0.3 432.26 0 431.06 0.3 429.66 0.3L429.66 0.3Q428.21 0.3 426.93-0.25 425.66-0.8 424.91-1.93 424.16-3.05 424.16-4.7L424.16-4.7 424.16-23.35 420.56-23.35 420.56-26.05 424.16-26.05 424.16-34.85 427.56-34.85 427.56-26.05 433.56-26.05 433.56-23.35 427.56-23.35 427.56-5.65Q427.66-4.25 428.58-3.55 429.51-2.85 430.71-2.85L430.71-2.85Q432.11-2.85 433.26-3.33 434.41-3.8 434.66-4L434.66-4ZM452.81-26.15L452.81-23.05Q449.41-22.95 446.83-21.15 444.25-19.35 443.2-16.2L443.2-16.2 443.2 0 439.81 0 439.81-26.05 443-26.05 443-19.8Q444.36-22.55 446.58-24.25 448.81-25.95 451.31-26.15L451.31-26.15Q451.81-26.2 452.18-26.2 452.56-26.2 452.81-26.15L452.81-26.15ZM455.15-7.5L455.15-7.5Q455.15-9.95 456.55-11.73 457.95-13.5 460.43-14.48 462.9-15.45 466.15-15.45L466.15-15.45Q468.05-15.45 470.1-15.15 472.15-14.85 473.75-14.25L473.75-14.25 473.75-16.45Q473.75-19.75 471.8-21.7 469.85-23.65 466.4-23.65L466.4-23.65Q464.3-23.65 462.28-22.88 460.25-22.1 458.05-20.6L458.05-20.6 456.75-23Q459.3-24.75 461.75-25.63 464.2-26.5 466.75-26.5L466.75-26.5Q471.55-26.5 474.35-23.75 477.15-21 477.15-16.15L477.15-16.15 477.15-4.1Q477.15-3.4 477.45-3.08 477.75-2.75 478.4-2.7L478.4-2.7 478.4 0Q477.85 0.05 477.45 0.1 477.05 0.15 476.85 0.1L476.85 0.1Q475.6 0.05 474.95-0.7 474.3-1.45 474.25-2.3L474.25-2.3 474.2-4.2Q472.45-1.95 469.65-0.73 466.85 0.5 463.95 0.5L463.95 0.5Q461.45 0.5 459.43-0.58 457.4-1.65 456.28-3.48 455.15-5.3 455.15-7.5ZM472.6-5.5L472.6-5.5Q473.15-6.2 473.45-6.85 473.75-7.5 473.75-8L473.75-8 473.75-11.8Q472.05-12.45 470.23-12.8 468.4-13.15 466.55-13.15L466.55-13.15Q462.9-13.15 460.65-11.7 458.4-10.25 458.4-7.75L458.4-7.75Q458.4-6.3 459.15-5.03 459.9-3.75 461.35-2.93 462.8-2.1 464.75-2.1L464.75-2.1Q467.2-2.1 469.33-3.05 471.45-4 472.6-5.5ZM493.05 0.5L493.05 0.5Q489.85 0.5 487.1-0.55 484.35-1.6 482.35-3.75L482.35-3.75 483.75-6.15Q485.95-4.1 488.18-3.18 490.4-2.25 492.9-2.25L492.9-2.25Q495.95-2.25 497.85-3.48 499.75-4.7 499.75-7L499.75-7Q499.75-8.55 498.82-9.38 497.9-10.2 496.18-10.73 494.45-11.25 492.05-11.85L492.05-11.85Q489.35-12.6 487.52-13.43 485.7-14.25 484.77-15.53 483.85-16.8 483.85-18.85L483.85-18.85Q483.85-21.4 485.13-23.08 486.4-24.75 488.63-25.63 490.85-26.5 493.6-26.5L493.6-26.5Q496.6-26.5 498.9-25.55 501.2-24.6 502.65-22.9L502.65-22.9 501-20.6Q499.6-22.2 497.68-22.98 495.75-23.75 493.4-23.75L493.4-23.75Q491.8-23.75 490.35-23.33 488.9-22.9 487.98-21.93 487.05-20.95 487.05-19.25L487.05-19.25Q487.05-17.85 487.75-17.07 488.45-16.3 489.85-15.78 491.25-15.25 493.3-14.65L493.3-14.65Q496.25-13.85 498.45-13.03 500.65-12.2 501.85-10.9 503.05-9.6 503.05-7.25L503.05-7.25Q503.05-3.6 500.3-1.55 497.55 0.5 493.05 0.5Z" opacity="1" transform="matrix(1,0,0,1,0,0)" fill="#000000" class="wordmark-text-0" data-fill-palette-color="primary" id="text-0"></path></svg></g></svg></g><g transform="matrix(1,0,0,1,111.99789065170037,40.980360413722245)"><svg viewBox="0 0 171.52421869659923 20.4889203703335" height="20.4889203703335" width="171.52421869659923"><g transform="matrix(1,0,0,1,0,0)"><svg width="171.52421869659923" viewBox="4.130000114440918 -37.5 400.9499816894531 47.900001525878906" height="20.4889203703335" data-palette-color="#398378"><path d="M13.96 0L4.13 0 4.13-35.55 14.16-35.55Q18.8-35.55 22.36-33.5 25.93-31.45 27.87-27.66 29.81-23.88 29.83-18.97L29.83-18.97 29.83-16.7Q29.83-11.67 27.89-7.89 25.95-4.1 22.35-2.08 18.75-0.05 13.96 0L13.96 0ZM14.28-31.69L8.81-31.69 8.81-3.83 13.75-3.83Q19.17-3.83 22.18-7.2 25.2-10.57 25.2-16.8L25.2-16.8 25.2-18.87Q25.2-24.93 22.35-28.28 19.51-31.64 14.28-31.69L14.28-31.69ZM41.11-26.42L41.11 0 36.59 0 36.59-26.42 41.11-26.42ZM36.23-33.42L36.23-33.42Q36.23-34.52 36.9-35.28 37.57-36.04 38.89-36.04 40.21-36.04 40.89-35.28 41.57-34.52 41.57-33.42 41.57-32.32 40.89-31.59 40.21-30.86 38.89-30.86 37.57-30.86 36.9-31.59 36.23-32.32 36.23-33.42ZM63.72-7.01L63.72-7.01Q63.72-8.84 62.34-9.85 60.96-10.86 57.53-11.6 54.1-12.33 52.08-13.35 50.07-14.38 49.1-15.8 48.14-17.21 48.14-19.17L48.14-19.17Q48.14-22.41 50.89-24.66 53.63-26.9 57.91-26.9L57.91-26.9Q62.4-26.9 65.19-24.58 67.99-22.27 67.99-18.65L67.99-18.65 63.45-18.65Q63.45-20.51 61.87-21.85 60.3-23.19 57.91-23.19L57.91-23.19Q55.44-23.19 54.05-22.12 52.66-21.04 52.66-19.31L52.66-19.31Q52.66-17.68 53.95-16.85 55.24-16.02 58.63-15.26 62.01-14.5 64.11-13.45 66.21-12.4 67.22-10.93 68.23-9.45 68.23-7.32L68.23-7.32Q68.23-3.78 65.4-1.65 62.57 0.49 58.05 0.49L58.05 0.49Q54.88 0.49 52.44-0.63 50-1.76 48.62-3.77 47.24-5.79 47.24-8.13L47.24-8.13 51.75-8.13Q51.87-5.86 53.57-4.53 55.27-3.2 58.05-3.2L58.05-3.2Q60.62-3.2 62.17-4.24 63.72-5.27 63.72-7.01ZM75.72-32.81L80.24-32.81 80.24-26.42 85.17-26.42 85.17-22.92 80.24-22.92 80.24-6.54Q80.24-4.96 80.9-4.16 81.56-3.37 83.15-3.37L83.15-3.37Q83.93-3.37 85.3-3.66L85.3-3.66 85.3 0Q83.51 0.49 81.83 0.49L81.83 0.49Q78.8 0.49 77.26-1.34 75.72-3.17 75.72-6.54L75.72-6.54 75.72-22.92 70.92-22.92 70.92-26.42 75.72-26.42 75.72-32.81ZM103.21-26.56L103.21-22.36Q102.19-22.53 100.99-22.53L100.99-22.53Q96.55-22.53 94.96-18.75L94.96-18.75 94.96 0 90.44 0 90.44-26.42 94.84-26.42 94.91-23.36Q97.13-26.9 101.21-26.9L101.21-26.9Q102.53-26.9 103.21-26.56L103.21-26.56ZM112.27-26.42L112.27 0 107.75 0 107.75-26.42 112.27-26.42ZM107.38-33.42L107.38-33.42Q107.38-34.52 108.06-35.28 108.73-36.04 110.05-36.04 111.36-36.04 112.05-35.28 112.73-34.52 112.73-33.42 112.73-32.32 112.05-31.59 111.36-30.86 110.05-30.86 108.73-30.86 108.06-31.59 107.38-32.32 107.38-33.42ZM141.86-13.31L141.86-12.92Q141.86-6.86 139.07-3.19 136.29 0.49 131.6 0.49L131.6 0.49Q126.6 0.49 123.86-3.05L123.86-3.05 123.64 0 119.49 0 119.49-37.5 124.01-37.5 124.01-23.51Q126.74-26.9 131.55-26.9 136.36-26.9 139.11-23.27 141.86-19.63 141.86-13.31L141.86-13.31ZM137.34-13.43L137.34-13.43Q137.34-18.04 135.56-20.56 133.77-23.07 130.43-23.07L130.43-23.07Q125.96-23.07 124.01-18.92L124.01-18.92 124.01-7.5Q126.08-3.34 130.48-3.34L130.48-3.34Q133.73-3.34 135.53-5.86 137.34-8.37 137.34-13.43ZM163.95 0L163.85-2.61Q161.21 0.49 156.11 0.49L156.11 0.49Q151.89 0.49 149.68-1.97 147.47-4.42 147.44-9.23L147.44-9.23 147.44-26.42 151.96-26.42 151.96-9.35Q151.96-3.34 156.84-3.34L156.84-3.34Q162.02-3.34 163.73-7.2L163.73-7.2 163.73-26.42 168.24-26.42 168.24 0 163.95 0ZM176.71-32.81L181.23-32.81 181.23-26.42 186.16-26.42 186.16-22.92 181.23-22.92 181.23-6.54Q181.23-4.96 181.89-4.16 182.55-3.37 184.14-3.37L184.14-3.37Q184.92-3.37 186.28-3.66L186.28-3.66 186.28 0Q184.5 0.49 182.82 0.49L182.82 0.49Q179.79 0.49 178.25-1.34 176.71-3.17 176.71-6.54L176.71-6.54 176.71-22.92 171.9-22.92 171.9-26.42 176.71-26.42 176.71-32.81ZM202.39 0.49L202.39 0.49Q197.02 0.49 193.65-3.04 190.29-6.57 190.29-12.48L190.29-12.48 190.29-13.31Q190.29-17.24 191.79-20.32 193.29-23.41 195.99-25.16 198.68-26.9 201.83-26.9L201.83-26.9Q206.98-26.9 209.84-23.51 212.7-20.12 212.7-13.79L212.7-13.79 212.7-11.91 194.8-11.91Q194.9-8.01 197.08-5.6 199.27-3.2 202.64-3.2L202.64-3.2Q205.03-3.2 206.69-4.17 208.35-5.15 209.6-6.76L209.6-6.76 212.36-4.61Q209.04 0.49 202.39 0.49ZM201.83-23.19L201.83-23.19Q199.1-23.19 197.24-21.2 195.39-19.21 194.95-15.63L194.95-15.63 208.18-15.63 208.18-15.97Q207.99-19.41 206.33-21.3 204.67-23.19 201.83-23.19ZM216.82-13.09L216.82-13.43Q216.82-19.51 219.7-23.21 222.58-26.9 227.25-26.9L227.25-26.9Q231.88-26.9 234.59-23.73L234.59-23.73 234.59-37.5 239.11-37.5 239.11 0 234.96 0 234.74-2.83Q232.03 0.49 227.2 0.49L227.2 0.49Q222.61 0.49 219.71-3.27 216.82-7.03 216.82-13.09L216.82-13.09ZM221.34-12.92L221.34-12.92Q221.34-8.42 223.19-5.88 225.05-3.34 228.32-3.34L228.32-3.34Q232.62-3.34 234.59-7.2L234.59-7.2 234.59-19.34Q232.57-23.07 228.37-23.07L228.37-23.07Q225.05-23.07 223.19-20.51 221.34-17.94 221.34-12.92ZM260.1-32.81L264.62-32.81 264.62-26.42 269.55-26.42 269.55-22.92 264.62-22.92 264.62-6.54Q264.62-4.96 265.28-4.16 265.94-3.37 267.52-3.37L267.52-3.37Q268.3-3.37 269.67-3.66L269.67-3.66 269.67 0Q267.89 0.49 266.21 0.49L266.21 0.49Q263.18 0.49 261.64-1.34 260.1-3.17 260.1-6.54L260.1-6.54 260.1-22.92 255.29-22.92 255.29-26.42 260.1-26.42 260.1-32.81ZM287.59-26.56L287.59-22.36Q286.56-22.53 285.37-22.53L285.37-22.53Q280.92-22.53 279.34-18.75L279.34-18.75 279.34 0 274.82 0 274.82-26.42 279.22-26.42 279.29-23.36Q281.51-26.9 285.59-26.9L285.59-26.9Q286.91-26.9 287.59-26.56L287.59-26.56ZM311.81 0L307.07 0Q306.68-0.78 306.43-2.78L306.43-2.78Q303.29 0.49 298.92 0.49L298.92 0.49Q295.01 0.49 292.51-1.72 290-3.93 290-7.32L290-7.32Q290-11.45 293.14-13.73 296.28-16.02 301.97-16.02L301.97-16.02 306.36-16.02 306.36-18.09Q306.36-20.46 304.95-21.86 303.53-23.27 300.77-23.27L300.77-23.27Q298.35-23.27 296.72-22.05 295.08-20.83 295.08-19.09L295.08-19.09 290.54-19.09Q290.54-21.07 291.94-22.91 293.35-24.76 295.75-25.83 298.16-26.9 301.04-26.9L301.04-26.9Q305.6-26.9 308.19-24.62 310.78-22.34 310.88-18.33L310.88-18.33 310.88-6.18Q310.88-2.54 311.81-0.39L311.81-0.39 311.81 0ZM299.57-3.44L299.57-3.44Q301.7-3.44 303.6-4.54 305.51-5.64 306.36-7.4L306.36-7.4 306.36-12.82 302.82-12.82Q294.52-12.82 294.52-7.96L294.52-7.96Q294.52-5.83 295.94-4.64 297.35-3.44 299.57-3.44ZM328.55-3.2L328.55-3.2Q330.97-3.2 332.78-4.66 334.58-6.13 334.78-8.33L334.78-8.33 339.05-8.33Q338.93-6.05 337.49-4 336.05-1.95 333.64-0.73 331.24 0.49 328.55 0.49L328.55 0.49Q323.16 0.49 319.97-3.11 316.78-6.71 316.78-12.96L316.78-12.96 316.78-13.72Q316.78-17.58 318.2-20.58 319.62-23.58 322.26-25.24 324.91-26.9 328.53-26.9L328.53-26.9Q332.97-26.9 335.91-24.24 338.85-21.58 339.05-17.33L339.05-17.33 334.78-17.33Q334.58-19.9 332.84-21.55 331.09-23.19 328.53-23.19L328.53-23.19Q325.08-23.19 323.19-20.72 321.3-18.24 321.3-13.55L321.3-13.55 321.3-12.7Q321.3-8.13 323.18-5.66 325.06-3.2 328.55-3.2ZM349.03-26.42L349.03 0 344.52 0 344.52-26.42 349.03-26.42ZM344.15-33.42L344.15-33.42Q344.15-34.52 344.82-35.28 345.49-36.04 346.81-36.04 348.13-36.04 348.81-35.28 349.5-34.52 349.5-33.42 349.5-32.32 348.81-31.59 348.13-30.86 346.81-30.86 345.49-30.86 344.82-31.59 344.15-32.32 344.15-33.42ZM356.26-26.42L360.53-26.42 360.68-23.1Q363.7-26.9 368.59-26.9L368.59-26.9Q376.96-26.9 377.03-17.46L377.03-17.46 377.03 0 372.52 0 372.52-17.48Q372.49-20.34 371.21-21.7 369.93-23.07 367.22-23.07L367.22-23.07Q365.02-23.07 363.36-21.9 361.7-20.73 360.77-18.82L360.77-18.82 360.77 0 356.26 0 356.26-26.42ZM382.77-13.43L382.77-13.43Q382.77-19.6 385.62-23.25 388.48-26.9 393.19-26.9L393.19-26.9Q398.03-26.9 400.74-23.49L400.74-23.49 400.96-26.42 405.08-26.42 405.08-0.63Q405.08 4.49 402.04 7.45 399 10.4 393.88 10.4L393.88 10.4Q391.02 10.4 388.29 9.18 385.55 7.96 384.11 5.83L384.11 5.83 386.45 3.13Q389.36 6.71 393.56 6.71L393.56 6.71Q396.85 6.71 398.7 4.86 400.54 3 400.54-0.37L400.54-0.37 400.54-2.64Q397.83 0.49 393.14 0.49L393.14 0.49Q388.5 0.49 385.64-3.25 382.77-6.98 382.77-13.43ZM387.31-12.92L387.31-12.92Q387.31-8.45 389.14-5.9 390.97-3.34 394.27-3.34L394.27-3.34Q398.54-3.34 400.54-7.23L400.54-7.23 400.54-19.29Q398.47-23.07 394.32-23.07L394.32-23.07Q391.02-23.07 389.16-20.51 387.31-17.94 387.31-12.92Z" opacity="1" transform="matrix(1,0,0,1,0,0)" fill="#000000" class="slogan-text-1" data-fill-palette-color="secondary" id="text-1"></path></svg></g></svg></g></svg></g></svg></g><g transform="matrix(1,0,0,1,155.28472697821746,0)"><svg viewBox="0 0 84.95054604356505 84.95054604356505" height="84.95054604356505" width="84.95054604356505"><g><svg></svg></g><g id="icon-0"><svg viewBox="0 0 84.95054604356505 84.95054604356505" height="84.95054604356505" width="84.95054604356505"><g><path xmlns="http://www.w3.org/2000/svg" d="M25.485 84.951c-14.075 0-25.485-11.41-25.485-25.486v-33.98c0-14.075 11.41-25.485 25.485-25.485h33.98c14.075 0 25.485 11.41 25.486 25.485v33.98c0 14.075-11.41 25.485-25.486 25.486z" fill="#000000" fill-rule="nonzero" stroke="none" stroke-width="1" stroke-linecap="butt" stroke-linejoin="miter" stroke-miterlimit="10" stroke-dasharray="" stroke-dashoffset="0" font-family="none" font-weight="none" font-size="none" text-anchor="none" style="mix-blend-mode: normal" data-fill-palette-color="accent"></path></g><g transform="matrix(1,0,0,1,16.991361351663752,16.990109208713015)"><svg viewBox="0 0 50.96782334023755 50.970327626139024" height="50.970327626139024" width="50.96782334023755"><g><svg xmlns="http://www.w3.org/2000/svg" xmlns:xlink="http://www.w3.org/1999/xlink" version="1.1" x="0" y="0" viewBox="0.3583327531814575 0.3587183356285095 89.28327178955078 89.28765869140625" enable-background="new 0 0 90 90" xml:space="preserve" height="50.970327626139024" width="50.96782334023755" class="icon-s-0" data-fill-palette-color="quaternary" id="s-0"><polygon points="57.928,58.169 57.875,76.027 45.397,63.548 45.397,45.639 " fill="#ffffff" data-fill-palette-color="quaternary"></polygon><polygon points="76.027,57.875 58.475,57.927 45.826,45.279 63.432,45.279 " fill="#ffffff" data-fill-palette-color="quaternary"></polygon><polygon points="76.027,32.125 63.432,44.721 45.707,44.721 58.355,32.073 " fill="#ffffff" data-fill-palette-color="quaternary"></polygon><polygon points="44.838,45.59 44.838,63.314 32.125,76.027 32.074,58.355 " fill="#ffffff" data-fill-palette-color="quaternary"></polygon><polygon points="57.928,31.712 45.397,44.243 45.397,26.452 57.875,13.974 " fill="#ffffff" data-fill-palette-color="quaternary"></polygon><polygon points="44.838,26.687 44.838,44.291 32.074,31.526 32.125,13.974 " fill="#ffffff" data-fill-palette-color="quaternary"></polygon><polygon points="44.479,44.721 26.569,44.721 13.974,32.125 31.832,32.073 " fill="#ffffff" data-fill-palette-color="quaternary"></polygon><polygon points="44.36,45.279 31.712,57.927 13.974,57.875 26.569,45.279 " fill="#ffffff" data-fill-palette-color="quaternary"></polygon><rect x="58.48" y="58.48" width="18.049" height="18.049" fill="#ffffff" data-fill-palette-color="quaternary"></rect><polygon points="76.527,13.474 76.527,31.516 58.914,31.516 58.912,31.518 58.484,31.516 58.484,13.474 " fill="#ffffff" data-fill-palette-color="quaternary"></polygon><polygon points="31.518,30.971 31.516,31.516 13.474,31.516 13.474,13.474 31.516,13.474 31.516,30.968 " fill="#ffffff" data-fill-palette-color="quaternary"></polygon><rect x="13.471" y="58.48" width="18.05" height="18.049" fill="#ffffff" data-fill-palette-color="quaternary"></rect><rect x="67.864" y="35.981" transform="matrix(0.7071 -0.7071 0.7071 0.7071 -9.3022 67.5465)" width="18.042" height="18.042" fill="#ffffff" data-fill-palette-color="quaternary"></rect><rect x="35.979" y="4.094" transform="matrix(0.7071 -0.7071 0.7071 0.7071 3.9068 35.6621)" width="18.042" height="18.042" fill="#ffffff" data-fill-palette-color="quaternary"></rect><rect x="4.095" y="35.98" transform="matrix(0.7071 -0.7071 0.7071 0.7071 -27.9787 22.4536)" width="18.041" height="18.041" fill="#ffffff" data-fill-palette-color="quaternary"></rect><rect x="35.98" y="67.865" transform="matrix(0.7071 -0.7071 0.7071 0.7071 -41.1877 54.3437)" width="18.04" height="18.041" fill="#ffffff" data-fill-palette-color="quaternary"></rect></svg></g></svg></g></svg></g></svg></g><g></g></svg></g><defs></defs></svg><rect width="395.52" height="154.2465944090882" fill="none" stroke="none" visibility="hidden"></rect></g></svg></g></svg>