 <svg  version="1.0" xmlns="http://www.w3.org/2000/svg"  width="300.000000pt" height="124.000000pt" viewBox="0 0 300.000000 124.000000"  preserveAspectRatio="xMidYMid meet">  <g transform="translate(0.000000,124.000000) scale(0.050000,-0.050000)" fill="#31c38d" stroke="none"> <path d="M5682 2425 c-1 -14 -13 -23 -26 -20 -13 3 -27 -10 -31 -29 -7 -30 9 -34 104 -33 81 1 111 9 111 29 0 19 -23 28 -68 28 -38 0 -73 11 -79 25 -8 20 -10 20 -11 0z"/> <path d="M1217 2223 c-2 -78 -4 -159 -5 -178 -1 -20 -33 -49 -76 -68 -120 -55 -169 -196 -108 -313 28 -55 -128 -324 -188 -324 -11 0 -20 -17 -20 -38 0 -27 -19 -43 -59 -52 -135 -30 -215 -194 -155 -319 30 -63 -90 -320 -130 -280 -6 6 -17 -12 -24 -40 -9 -34 -26 -51 -54 -51 -72 0 -178 -125 -178 -209 0 -219 241 -326 388 -173 109 114 73 315 -67 368 l-56 21 36 65 c88 156 129 208 159 196 93 -37 139 -41 207 -18 l74 26 50 -98 c27 -54 43 -98 35 -98 -8 0 -3 -11 10 -24 33 -33 30 -56 -6 -56 -145 0 -215 -260 -101 -378 148 -155 391 -51 391 168 0 85 -106 210 -178 210 -28 0 -42 13 -42 39 0 21 -9 44 -20 51 -64 40 -121 210 -90 269 60 118 7 286 -100 313 -66 16 -55 53 66 222 69 95 100 123 123 112 34 -16 216 -21 258 -6 26 10 272 -418 252 -438 -5 -4 1 -19 12 -33 15 -18 5 -30 -40 -46 -224 -78 -151 -443 89 -443 249 0 313 378 76 449 -101 30 -358 530 -315 613 61 118 4 276 -117 319 l-64 23 -7 173 c-8 214 -22 238 -26 46z m105 -277 c32 -19 59 -39 60 -45 0 -6 6 -29 11 -51 36 -138 32 -168 -29 -229 -87 -87 -224 -79 -299 17 -27 35 -28 202 -1 202 9 0 16 13 16 29 0 86 147 133 242 77z m-433 -729 c28 -13 51 -35 51 -50 0 -15 9 -27 19 -27 35 0 60 -137 37 -202 -34 -99 -181 -149 -282 -95 -207 111 -38 471 175 374z m894 -242 c168 -164 -28 -432 -211 -290 -123 95 -146 158 -82 222 17 17 30 39 30 50 0 92 175 104 263 18z m-1277 -434 c77 -29 180 -281 115 -281 -10 0 -24 -17 -30 -37 -30 -94 -266 -84 -310 12 -50 111 15 278 119 307 28 8 52 15 54 16 2 1 25 -6 52 -17z m718 -38 c60 -58 89 -210 50 -269 -103 -158 -367 -79 -344 103 24 191 178 277 294 166z"/> <path d="M1201 1782 c-29 -54 -28 -57 26 -57 37 0 46 9 38 38 -15 56 -40 63 -64 19z"/> <path d="M780 1020 c0 -61 12 -71 54 -44 32 20 10 104 -26 104 -18 0 -28 -22 -28 -60z"/> <path d="M1640 830 c0 -39 10 -49 45 -48 38 2 39 4 7 12 -30 8 -32 14 -10 28 23 15 23 17 -2 18 -27 1 -27 3 0 20 26 17 25 19 -5 20 -24 0 -35 -16 -35 -50z"/> <path d="M421 381 c-37 -23 -17 -91 28 -91 25 0 39 15 41 44 4 49 -29 71 -69 47z"/> <path d="M1067 370 c-17 -46 9 -94 48 -86 43 8 58 75 22 98 -39 25 -57 22 -70 -12z"/> <path d="M1280 2285 c1 -46 40 -60 158 -58 152 3 203 51 59 55 -48 2 -100 4 -117 5 -16 2 -37 -6 -45 -17 -9 -12 -15 -10 -15 5 0 14 -9 25 -20 25 -11 0 -20 -7 -20 -15z"/> <path d="M1600 2260 c0 -27 13 -40 40 -40 27 0 40 13 40 40 0 27 -13 40 -40 40 -27 0 -40 -13 -40 -40z"/> <path d="M1820 2244 c0 -39 7 -44 45 -32 55 17 197 16 253 -2 34 -10 42 -4 42 34 0 45 -5 46 -170 46 -164 0 -170 -2 -170 -46z"/> <path d="M3040 1990 l0 -130 1320 0 1320 0 0 130 0 130 -1320 0 -1320 0 0 -130z m1289 5 c-9 -37 -2 -45 40 -48 44 -2 48 2 29 37 -27 51 -12 65 40 37 52 -28 53 -54 3 -80 -97 -52 -264 12 -186 71 55 42 87 34 74 -17z"/> <path d="M2905 1355 l-5 -675 45 2 c33 2 36 5 10 12 -32 8 -35 62 -40 672 l-6 664 -4 -675z"/> <path d="M320 1962 c0 -39 108 -66 185 -46 51 13 43 64 -10 65 -25 1 -74 6 -110 10 -53 7 -65 2 -65 -29z"/> <path d="M645 1984 c-153 -11 -108 -61 55 -62 104 0 140 7 140 27 0 31 -73 44 -195 35z"/> <path d="M3160 1670 l0 -130 700 0 700 0 0 130 0 130 -700 0 -700 0 0 -130z m783 50 l47 -39 -50 -40 c-60 -48 -145 -53 -187 -11 -17 17 -42 30 -55 30 -14 0 5 23 42 50 82 60 140 63 203 10z"/> <path d="M3820 1670 c0 -37 11 -50 40 -50 29 0 40 13 40 50 0 37 -11 50 -40 50 -29 0 -40 -13 -40 -50z"/> <path d="M581 1520 c0 -44 3 -46 21 -15 11 20 30 30 42 22 55 -33 276 -26 276 10 0 30 -22 34 -170 34 -168 -1 -170 -2 -169 -51z"/> <path d="M3069 1300 l1 -290 50 -5 c44 -4 45 -2 10 12 -36 15 -41 41 -51 295 l-11 278 1 -290z"/> <path d="M1532 1468 c-17 -44 22 -58 168 -58 146 0 185 14 168 58 -11 30 -325 30 -336 0z"/> <path d="M3240 1350 l0 -130 309 0 c348 0 333 -7 317 146 l-12 114 -307 0 -307 0 0 -130z m412 48 c37 -41 37 -42 -2 -71 -37 -27 -41 -25 -50 27 -14 73 -68 74 -76 1 -7 -61 -27 -69 -63 -26 -74 89 112 156 191 69z"/> <path d="M2428 1428 c7 -17 12 -40 12 -50 0 -40 40 -15 42 27 2 43 3 43 18 -5 9 -27 17 -38 18 -23 1 19 10 22 27 9 14 -10 88 -20 165 -22 97 -2 128 3 100 15 -30 14 -32 19 -8 20 17 0 31 15 31 31 0 35 -105 36 -150 3 -18 -14 -31 -12 -43 8 -14 22 -22 18 -36 -20 -17 -48 -18 -48 -29 -5 -9 35 -26 44 -85 44 -60 0 -72 -6 -62 -32z"/> <path d="M3886 1148 c-4 -13 -6 -71 -2 -130 l6 -108 305 -6 305 -5 0 135 0 136 -303 0 c-204 0 -305 -7 -311 -22z m274 -110 c0 -54 -4 -59 -30 -38 -48 40 -38 78 25 98 3 1 5 -26 5 -60z m120 32 c20 -24 20 -36 0 -60 -37 -45 -50 -37 -50 30 0 67 13 75 50 30z"/> <path d="M100 815 c0 -31 75 -38 140 -14 6 2 17 2 27 1 116 -21 173 -16 173 15 0 28 -25 33 -170 33 -148 0 -170 -4 -170 -35z"/> <path d="M1060 820 c0 -24 32 -30 170 -30 139 0 170 6 170 31 0 25 -30 30 -170 30 -137 -1 -170 -7 -170 -31z"/> <path d="M4540 710 l0 -130 540 0 540 0 0 130 0 130 -540 0 -540 0 0 -130z m621 49 c80 -43 22 -119 -91 -119 -69 0 -130 34 -130 71 0 57 146 88 221 48z"/> <path d="M5040 710 c0 -39 10 -50 45 -49 43 2 43 3 5 18 -40 16 -40 16 0 26 40 10 40 10 0 14 -40 4 -40 4 0 21 38 16 38 17 -5 19 -35 1 -45 -10 -45 -49z"/> <path d="M3103 415 l-3 -55 1290 0 1290 0 -3 55 c-2 47 -4 49 -11 10 l-9 -45 -1267 0 -1267 0 -9 45 c-7 39 -9 37 -11 -10z"/> <path d="M4200 165 c0 -9 11 -29 25 -44 20 -21 20 -24 0 -13 -14 8 -25 4 -25 -8 0 -26 80 -19 113 10 17 15 17 24 0 37 -15 10 -13 13 7 7 17 -4 29 -23 27 -42 -2 -24 4 -28 22 -13 16 14 32 12 50 -4 21 -20 28 -20 35 0 5 14 20 19 33 11 61 -39 113 -28 113 23 0 41 -10 51 -50 51 -27 0 -50 -10 -50 -22 0 -16 -9 -15 -30 2 -25 21 -30 18 -31 -13 0 -32 -3 -33 -19 -6 -19 34 -220 55 -220 24z"/> </g> </svg> 